name Walk6.mot
datacolumns 19
datarows 12
range 1.20500000 1.26000000
endheader

                time	   L_ground_force_vx	   L_ground_force_vy	   L_ground_force_vz	   L_ground_force_px	   L_ground_force_py	   L_ground_force_pz	   R_ground_force_vx	   R_ground_force_vy	   R_ground_force_vz	   R_ground_force_px	   R_ground_force_py	   R_ground_force_pz	   L_ground_torque_x	   L_ground_torque_y	   L_ground_torque_z	   R_ground_torque_x	   R_ground_torque_y	   R_ground_torque_z	
          1.20500000	         -6.31065327	        125.49769165	        -13.59438608	         -0.06357355	          0.00000000	         -0.01461150	         -0.00000007	          0.00000104	          0.00000000	          0.00000000	          0.00000000	          0.00000000	          0.00000000	          0.12299470	          0.00000000	          0.00000000	         -0.00000002	          0.00000000	
          1.21000000	        -11.34238291	        171.64552009	        -18.29900322	         -0.14063019	          0.00000000	         -0.03332065	         -0.00000010	          0.00000132	          0.00000001	          0.00000000	          0.00000000	          0.00000000	          0.00000000	          0.15654147	          0.00000000	          0.00000000	         -0.00000002	          0.00000000	
          1.21500000	        -18.07224306	        219.19158752	        -22.92016919	         -0.20851852	          0.00000000	         -0.04992526	         -0.00000014	          0.00000160	          0.00000001	          0.00000000	          0.00000000	          0.00000000	          0.00000000	          0.19190835	          0.00000000	          0.00000000	         -0.00000002	          0.00000000	
          1.22000000	        -26.43926049	        265.65105453	        -27.03518707	         -0.26491878	          0.00000000	         -0.06391074	         -0.00000017	          0.00000183	          0.00000001	          0.00000000	          0.00000000	          0.00000000	          0.00000000	          0.22458286	          0.00000000	          0.00000000	         -0.00000002	          0.00000000	
          1.22500000	        -36.05243603	        309.58270278	        -30.20249401	         -0.30924565	          0.00000000	         -0.07517857	         -0.00000020	          0.00000197	          0.00000002	          0.00000000	          0.00000000	          0.00000000	          0.00000000	          0.24812982	          0.00000000	          0.00000000	         -0.00000002	          0.00000000	
          1.23000000	        -46.27080077	        350.40122118	        -32.06970750	         -0.34207731	          0.00000000	         -0.08389801	         -0.00000023	          0.00000194	          0.00000002	          0.00000000	          0.00000000	          0.00000000	          0.00000000	          0.25470061	          0.00000000	          0.00000000	         -0.00000001	          0.00000000	
          1.23500000	        -56.39512676	        388.09096520	        -32.43339160	         -0.36469395	          0.00000000	         -0.09038792	         -0.00000024	          0.00000166	          0.00000003	          0.00000000	          0.00000000	          0.00000000	          0.00000000	          0.23658626	          0.00000000	          0.00000000	          0.00000000	          0.00000000	
          1.24000000	        -65.89645681	        423.05521907	        -31.26145830	         -0.37872268	          0.00000000	         -0.09503049	         -0.00000023	          0.00000101	          0.00000003	         -0.00000000	          0.00000000	         -0.00000000	          0.00000000	          0.18813435	          0.00000000	          0.00000000	          0.00000002	          0.00000000	
          1.24500000	        -74.57769337	        455.92352245	        -28.67639883	         -0.38588325	          0.00000000	         -0.09821025	         -0.00000019	         -0.00000012	          0.00000003	         -0.00000000	          0.00000000	         -0.00000000	          0.00000000	          0.10761716	          0.00000000	          0.00000000	          0.00000005	          0.00000000	
          1.25000000	        -82.53859931	        487.30599563	        -24.91599557	         -0.38782725	          0.00000000	         -0.10027788	         -0.00000010	         -0.00000186	          0.00000002	         -0.00000000	          0.00000000	         -0.00000000	          0.00000000	         -0.00128064	          0.00000000	          0.00000000	          0.00000008	          0.00000000	
          1.25500000	        -89.95376020	        517.55620915	        -20.30891873	         -0.38605123	          0.00000000	         -0.10152939	          0.00000006	         -0.00000436	          0.00000001	         -0.00000000	          0.00000000	         -0.00000000	          0.00000000	         -0.12865001	          0.00000000	          0.00000000	          0.00000013	          0.00000000	
          1.26000000	        -96.83993423	        546.69288214	        -15.25252591	         -0.38184949	          0.00000000	         -0.10219717	          0.00000029	         -0.00000771	         -0.00000000	         -0.00000000	          0.00000000	         -0.00000000	          0.00000000	         -0.25865782	          0.00000000	          0.00000000	          0.00000018	          0.00000000	
